<mxfile host="Electron" agent="Mozilla/5.0 (Windows NT 10.0; Win64; x64) AppleWebKit/537.36 (KHTML, like Gecko) draw.io/28.0.6 Chrome/138.0.7204.100 Electron/37.2.3 Safari/537.36" version="28.0.6">
  <diagram name="Page-1" id="KhhvxeyMpxUaNeoB0OYU">
    <mxGraphModel dx="2066" dy="1201" grid="1" gridSize="10" guides="1" tooltips="1" connect="1" arrows="1" fold="1" page="1" pageScale="1" pageWidth="850" pageHeight="1100" math="0" shadow="0">
      <root>
        <mxCell id="0" />
        <mxCell id="1" parent="0" />
        <mxCell id="fAiD6ujwmTnoUbvaXvls-1" value="// 9/28/25&lt;div&gt;// Chase Carpenter&lt;/div&gt;" style="text;html=1;align=center;verticalAlign=middle;resizable=0;points=[];autosize=1;strokeColor=none;fillColor=none;" vertex="1" parent="1">
          <mxGeometry x="590" y="143" width="120" height="40" as="geometry" />
        </mxCell>
        <mxCell id="fAiD6ujwmTnoUbvaXvls-4" value="" style="edgeStyle=orthogonalEdgeStyle;rounded=0;orthogonalLoop=1;jettySize=auto;html=1;" edge="1" parent="1" source="fAiD6ujwmTnoUbvaXvls-2" target="fAiD6ujwmTnoUbvaXvls-3">
          <mxGeometry relative="1" as="geometry" />
        </mxCell>
        <mxCell id="fAiD6ujwmTnoUbvaXvls-2" value="Start" style="ellipse;whiteSpace=wrap;html=1;" vertex="1" parent="1">
          <mxGeometry x="290" y="40" width="120" height="70" as="geometry" />
        </mxCell>
        <mxCell id="fAiD6ujwmTnoUbvaXvls-6" value="" style="edgeStyle=orthogonalEdgeStyle;rounded=0;orthogonalLoop=1;jettySize=auto;html=1;" edge="1" parent="1" source="fAiD6ujwmTnoUbvaXvls-3" target="fAiD6ujwmTnoUbvaXvls-5">
          <mxGeometry relative="1" as="geometry" />
        </mxCell>
        <mxCell id="fAiD6ujwmTnoUbvaXvls-3" value="Declare Variables:&lt;div&gt;counter&lt;/div&gt;&lt;div&gt;sum&lt;/div&gt;&lt;div&gt;number&lt;/div&gt;" style="whiteSpace=wrap;html=1;" vertex="1" parent="1">
          <mxGeometry x="290" y="133" width="120" height="60" as="geometry" />
        </mxCell>
        <mxCell id="fAiD6ujwmTnoUbvaXvls-8" style="edgeStyle=orthogonalEdgeStyle;rounded=0;orthogonalLoop=1;jettySize=auto;html=1;exitX=0.5;exitY=1;exitDx=0;exitDy=0;entryX=0.5;entryY=0;entryDx=0;entryDy=0;" edge="1" parent="1" source="fAiD6ujwmTnoUbvaXvls-5" target="fAiD6ujwmTnoUbvaXvls-7">
          <mxGeometry relative="1" as="geometry" />
        </mxCell>
        <mxCell id="fAiD6ujwmTnoUbvaXvls-5" value="Initialize:&lt;div&gt;counter = 1&lt;/div&gt;&lt;div&gt;sum = 0&lt;/div&gt;" style="whiteSpace=wrap;html=1;" vertex="1" parent="1">
          <mxGeometry x="290" y="220" width="120" height="60" as="geometry" />
        </mxCell>
        <mxCell id="fAiD6ujwmTnoUbvaXvls-11" value="" style="edgeStyle=orthogonalEdgeStyle;rounded=0;orthogonalLoop=1;jettySize=auto;html=1;" edge="1" parent="1" source="fAiD6ujwmTnoUbvaXvls-7" target="fAiD6ujwmTnoUbvaXvls-10">
          <mxGeometry relative="1" as="geometry" />
        </mxCell>
        <mxCell id="fAiD6ujwmTnoUbvaXvls-7" value="Output: &quot;Enter number:&quot;" style="shape=parallelogram;perimeter=parallelogramPerimeter;whiteSpace=wrap;html=1;fixedSize=1;" vertex="1" parent="1">
          <mxGeometry x="265" y="300" width="170" height="60" as="geometry" />
        </mxCell>
        <mxCell id="fAiD6ujwmTnoUbvaXvls-9" style="edgeStyle=orthogonalEdgeStyle;rounded=0;orthogonalLoop=1;jettySize=auto;html=1;exitX=0.5;exitY=1;exitDx=0;exitDy=0;" edge="1" parent="1" source="fAiD6ujwmTnoUbvaXvls-7" target="fAiD6ujwmTnoUbvaXvls-7">
          <mxGeometry relative="1" as="geometry" />
        </mxCell>
        <mxCell id="fAiD6ujwmTnoUbvaXvls-13" value="" style="edgeStyle=orthogonalEdgeStyle;rounded=0;orthogonalLoop=1;jettySize=auto;html=1;" edge="1" parent="1" source="fAiD6ujwmTnoUbvaXvls-10" target="fAiD6ujwmTnoUbvaXvls-12">
          <mxGeometry relative="1" as="geometry" />
        </mxCell>
        <mxCell id="fAiD6ujwmTnoUbvaXvls-10" value="Input number" style="shape=parallelogram;perimeter=parallelogramPerimeter;whiteSpace=wrap;html=1;fixedSize=1;" vertex="1" parent="1">
          <mxGeometry x="260" y="380" width="180" height="60" as="geometry" />
        </mxCell>
        <mxCell id="fAiD6ujwmTnoUbvaXvls-15" value="" style="edgeStyle=orthogonalEdgeStyle;rounded=0;orthogonalLoop=1;jettySize=auto;html=1;" edge="1" parent="1" source="fAiD6ujwmTnoUbvaXvls-12" target="fAiD6ujwmTnoUbvaXvls-14">
          <mxGeometry relative="1" as="geometry" />
        </mxCell>
        <mxCell id="fAiD6ujwmTnoUbvaXvls-12" value="sum = sum + number" style="whiteSpace=wrap;html=1;" vertex="1" parent="1">
          <mxGeometry x="290" y="460" width="120" height="60" as="geometry" />
        </mxCell>
        <mxCell id="fAiD6ujwmTnoUbvaXvls-17" value="" style="edgeStyle=orthogonalEdgeStyle;rounded=0;orthogonalLoop=1;jettySize=auto;html=1;" edge="1" parent="1" source="fAiD6ujwmTnoUbvaXvls-14" target="fAiD6ujwmTnoUbvaXvls-16">
          <mxGeometry relative="1" as="geometry" />
        </mxCell>
        <mxCell id="fAiD6ujwmTnoUbvaXvls-14" value="counter = counter + 1" style="whiteSpace=wrap;html=1;" vertex="1" parent="1">
          <mxGeometry x="290" y="540" width="120" height="60" as="geometry" />
        </mxCell>
        <mxCell id="fAiD6ujwmTnoUbvaXvls-26" style="edgeStyle=orthogonalEdgeStyle;rounded=0;orthogonalLoop=1;jettySize=auto;html=1;exitX=1;exitY=0.5;exitDx=0;exitDy=0;entryX=0.5;entryY=0;entryDx=0;entryDy=0;" edge="1" parent="1" source="fAiD6ujwmTnoUbvaXvls-16" target="fAiD6ujwmTnoUbvaXvls-25">
          <mxGeometry relative="1" as="geometry" />
        </mxCell>
        <mxCell id="fAiD6ujwmTnoUbvaXvls-27" value="No" style="edgeLabel;html=1;align=center;verticalAlign=middle;resizable=0;points=[];" vertex="1" connectable="0" parent="fAiD6ujwmTnoUbvaXvls-26">
          <mxGeometry x="-0.2667" y="2" relative="1" as="geometry">
            <mxPoint as="offset" />
          </mxGeometry>
        </mxCell>
        <mxCell id="fAiD6ujwmTnoUbvaXvls-16" value="Is counter &amp;lt;= 10?" style="rhombus;whiteSpace=wrap;html=1;" vertex="1" parent="1">
          <mxGeometry x="255" y="620" width="190" height="80" as="geometry" />
        </mxCell>
        <mxCell id="fAiD6ujwmTnoUbvaXvls-18" value="" style="endArrow=classic;html=1;rounded=0;entryX=0;entryY=0.5;entryDx=0;entryDy=0;" edge="1" parent="1" target="fAiD6ujwmTnoUbvaXvls-10">
          <mxGeometry width="50" height="50" relative="1" as="geometry">
            <mxPoint x="200" y="660" as="sourcePoint" />
            <mxPoint x="450" y="490" as="targetPoint" />
            <Array as="points">
              <mxPoint x="200" y="410" />
            </Array>
          </mxGeometry>
        </mxCell>
        <mxCell id="fAiD6ujwmTnoUbvaXvls-19" value="Yes" style="edgeLabel;html=1;align=center;verticalAlign=middle;resizable=0;points=[];" vertex="1" connectable="0" parent="fAiD6ujwmTnoUbvaXvls-18">
          <mxGeometry x="-0.0812" y="-2" relative="1" as="geometry">
            <mxPoint as="offset" />
          </mxGeometry>
        </mxCell>
        <mxCell id="fAiD6ujwmTnoUbvaXvls-20" value="" style="endArrow=none;html=1;rounded=0;exitX=0;exitY=0.5;exitDx=0;exitDy=0;" edge="1" parent="1" source="fAiD6ujwmTnoUbvaXvls-16">
          <mxGeometry width="50" height="50" relative="1" as="geometry">
            <mxPoint x="400" y="540" as="sourcePoint" />
            <mxPoint x="200" y="660" as="targetPoint" />
          </mxGeometry>
        </mxCell>
        <mxCell id="fAiD6ujwmTnoUbvaXvls-31" style="edgeStyle=orthogonalEdgeStyle;rounded=0;orthogonalLoop=1;jettySize=auto;html=1;exitX=0.5;exitY=1;exitDx=0;exitDy=0;entryX=0.5;entryY=0;entryDx=0;entryDy=0;" edge="1" parent="1" source="fAiD6ujwmTnoUbvaXvls-25" target="fAiD6ujwmTnoUbvaXvls-30">
          <mxGeometry relative="1" as="geometry" />
        </mxCell>
        <mxCell id="fAiD6ujwmTnoUbvaXvls-25" value="Output: &quot;The total sum of the 10 numbers is: &quot;sum&quot;," style="shape=parallelogram;perimeter=parallelogramPerimeter;whiteSpace=wrap;html=1;fixedSize=1;" vertex="1" parent="1">
          <mxGeometry x="400" y="730" width="210" height="60" as="geometry" />
        </mxCell>
        <mxCell id="fAiD6ujwmTnoUbvaXvls-30" value="End" style="ellipse;whiteSpace=wrap;html=1;" vertex="1" parent="1">
          <mxGeometry x="445" y="810" width="120" height="70" as="geometry" />
        </mxCell>
        <mxCell id="fAiD6ujwmTnoUbvaXvls-32" value="//This program asks the user to enter 10&lt;div&gt;numbers. After the 10th number is entered,&lt;/div&gt;&lt;div&gt;the program will display the sum. If the number&lt;/div&gt;&lt;div&gt;entered is not the 10th number, the program&lt;/div&gt;&lt;div&gt;will loop back to the input number step.&lt;/div&gt;" style="text;html=1;align=center;verticalAlign=middle;resizable=0;points=[];autosize=1;strokeColor=none;fillColor=none;" vertex="1" parent="1">
          <mxGeometry x="480" y="280" width="270" height="90" as="geometry" />
        </mxCell>
      </root>
    </mxGraphModel>
  </diagram>
</mxfile>
